PathFileType	4	(X/Y/Z)	 s04c0403.trc
DataRate	CameraRate	NumFrames	NumMarkers	Units	OrigDataRate	OrigDataStartFrame	OrigNumFrames
200	200	7	50	mm	200	1001	2000
Frame#	Time	racr			lacr			c7			jug			rlel			rdr			llel			ldr			s2			lic			ric			lasi			rasi			rpsi			lpsi			rgt			lgt			rth1			rth2			rth3			rth4			rlfc			rmfc			rsh1			rsh2			rsh3			rsh4			rlmal			rmmal			rcal			rtoe			rmt5			lth1			lth2			lth4			lth3			llfc			lmfc			lsh1			lsh2			lsh3			lsh4			llmal			lmmal			lcal			ltoe			lmt5			SBIKE			LBIKE			RBIKE			
		X1	Y1	Z1	X2	Y2	Z2	X3	Y3	Z3	X4	Y4	Z4	X5	Y5	Z5	X6	Y6	Z6	X7	Y7	Z7	X8	Y8	Z8	X9	Y9	Z9	X10	Y10	Z10	X11	Y11	Z11	X12	Y12	Z12	X13	Y13	Z13	X14	Y14	Z14	X15	Y15	Z15	X16	Y16	Z16	X17	Y17	Z17	X18	Y18	Z18	X19	Y19	Z19	X20	Y20	Z20	X21	Y21	Z21	X22	Y22	Z22	X23	Y23	Z23	X24	Y24	Z24	X25	Y25	Z25	X26	Y26	Z26	X27	Y27	Z27	X28	Y28	Z28	X29	Y29	Z29	X30	Y30	Z30	X31	Y31	Z31	X32	Y32	Z32	X33	Y33	Z33	X34	Y34	Z34	X35	Y35	Z35	X36	Y36	Z36	X37	Y37	Z37	X38	Y38	Z38	X39	Y39	Z39	X40	Y40	Z40	X41	Y41	Z41	X42	Y42	Z42	X43	Y43	Z43	X44	Y44	Z44	X45	Y45	Z45	X46	Y46	Z46	X47	Y47	Z47	X48	Y48	Z48	X49	Y49	Z49	X50	Y50	Z50	
1001	5.0050	851.882119	1254.567009	-66.373320	837.437027	1289.011580	-395.752920	883.575081	1361.607692	-231.965648	797.754067	1226.004261	-245.707116	571.719916	1154.325736	94.094711	698.753426	947.519145	-39.698712	595.269205	1171.496224	-532.339586	701.140251	937.883118	-462.088633	286.636795	1321.845508	-318.152659	455.956351	1240.785725	-424.751122	389.390146	1327.183217	-124.763537	467.777133	1192.628072	-371.773509	426.582747	1263.357505	-151.847814	316.469802	1366.219133	-278.177195	337.737315	1346.305720	-349.430764	338.232472	1288.743958	-105.767388	389.085513	1162.525087	-449.186421	424.956233	1149.517774	-74.685382	491.095774	1091.049025	-76.473364	520.777321	1011.407652	-74.693234	518.989430	1110.810568	-92.643264	589.021826	878.097731	-91.400306	578.304122	862.031907	-205.508898	505.031067	783.042493	-75.917194	467.271330	701.392129	-93.258804	394.711455	656.847417	-105.741109	494.598496	684.045269	-114.033887	305.177015	535.998004	-119.594230	333.350947	538.045458	-202.861436	232.472685	529.843918	-161.816183	507.122135	413.374702	-140.509780	434.594309	413.064896	-87.094454	400.623489	1077.488779	-455.611298	433.132991	997.551725	-447.291298	462.054852	1002.268619	-426.446691	424.134211	909.359387	-456.079600	406.102663	744.717545	-448.155677	405.895695	709.014763	-336.546677	332.357968	635.074764	-473.631340	295.799033	558.529606	-454.461043	225.148167	504.430728	-458.562446	316.901627	544.807612	-424.059506	129.269058	383.810017	-459.789550	NaN	NaN	NaN	63.253000	426.372564	-421.855932	216.732915	161.609587	-393.220823	154.747299	199.351983	-462.538538	-175.682773	934.891783	-277.422935	-3.128667	86.496058	-484.195482	-15.004597	80.649055	-83.838670	
1002	5.0100	851.512688	1253.319858	-66.946343	836.427837	1290.163125	-395.780662	883.473266	1361.477658	-231.482090	796.799039	1226.501377	-246.236008	571.201832	1154.455181	93.721765	698.544053	947.775073	-39.719464	594.765487	1171.589473	-532.247509	700.827589	937.893958	-461.571300	286.162962	1323.176795	-315.392706	454.826807	1243.138006	-423.697058	389.569525	1325.876763	-122.476700	467.006603	1194.564460	-371.149143	426.378073	1262.496561	-150.155275	315.883624	1367.263714	-274.873353	337.119180	1348.224103	-346.569419	337.768278	1287.007264	-103.807991	389.799902	1165.392557	-448.451505	423.227812	1146.125279	-74.281693	488.735334	1087.074720	-76.603058	517.546473	1007.169132	-75.695469	516.891699	1106.763768	-92.624318	584.579778	873.894818	-92.990159	573.449591	857.796250	-207.181320	502.330791	777.413122	-77.183370	466.547824	694.720842	-93.981489	395.060532	648.303891	-106.241372	494.265976	677.933887	-114.880219	307.847248	525.280778	-119.425974	335.634307	528.055304	-202.987627	235.055802	518.239685	-161.594641	511.660201	406.294018	-140.668962	439.211394	404.867376	-87.072539	403.164076	1079.925327	-454.403242	437.538008	1000.815007	-446.412174	466.273518	1006.385634	-426.901151	430.602985	912.447286	-455.491417	414.132904	747.266999	-447.887920	413.997847	711.724910	-336.488351	338.579729	639.051155	-473.133889	300.317040	563.425407	-453.937682	228.362084	510.918683	-457.868658	320.871959	549.192974	-423.264005	129.994489	391.794960	-458.425952	NaN	NaN	NaN	64.356084	436.227046	-421.114352	211.018461	167.079732	-393.311458	150.272894	207.122140	-462.423034	-175.517776	934.973673	-277.174879	-3.112112	86.936992	-484.418561	-14.970443	80.638650	-83.816806	
1003	5.0150	851.205069	1252.337491	-67.256804	838.214303	1291.709374	-398.023804	883.029637	1361.725242	-230.852505	798.035346	1225.818973	-246.992144	570.591154	1154.578166	93.278274	698.318409	948.264710	-39.506095	594.473887	1171.702676	-532.232988	700.512528	937.948888	-461.112130	285.474607	1324.032022	-312.936355	453.712432	1245.382653	-422.696171	389.767038	1324.244715	-120.240201	466.250599	1196.314502	-370.661162	426.269172	1261.230965	-149.073734	315.152200	1367.969021	-271.686171	336.265708	1349.780744	-343.663304	337.279857	1285.036025	-101.853786	390.604510	1168.326359	-447.896426	421.513862	1142.703943	-73.622881	486.758870	1083.039973	-77.056484	514.503410	1002.838730	-76.736977	514.928610	1102.582888	-92.277871	580.563166	869.943271	-94.728877	568.693791	853.515568	-208.862127	499.728385	771.586242	-78.421241	465.581585	688.111134	-94.807801	395.142475	640.128783	-106.670865	493.718793	671.848709	-115.763754	310.216879	515.197042	-119.262363	337.825263	518.250189	-202.869471	237.429172	506.982204	-161.125319	515.765364	398.791724	-140.886842	443.446601	396.575536	-87.166095	405.540224	1082.580352	-453.317974	441.528586	1004.024875	-445.738660	470.725497	1009.905755	-425.337556	436.291434	915.685705	-455.032941	421.299712	749.867049	-447.608648	421.858383	714.342403	-336.315691	344.580345	642.770162	-472.640555	304.650186	567.974108	-453.102597	231.679014	516.990868	-457.247520	324.848369	553.396470	-422.318439	130.678390	400.080397	-457.682803	NaN	NaN	NaN	66.242399	446.008314	-420.307263	205.673462	172.704792	-393.369719	146.146602	214.791421	-462.203379	-175.379823	935.044625	-276.882633	-3.053870	87.015087	-484.385350	-14.949429	80.658745	-83.803469	
1004	5.0200	850.702638	1251.890699	-67.248691	835.854587	1292.748059	-397.625735	882.525981	1361.955919	-230.197821	796.211984	1226.907089	-246.722901	569.831710	1154.643236	92.778483	698.103378	948.470856	-39.442301	594.331171	1171.877334	-532.317038	700.247711	938.026644	-460.664512	284.741198	1324.546670	-310.369296	452.604068	1247.579651	-421.760015	389.965175	1322.498440	-117.980846	465.676283	1198.102623	-370.212062	426.199269	1259.894985	-148.045970	314.377703	1368.266069	-268.547735	335.287159	1351.153172	-340.731597	336.850220	1282.731825	-100.064554	391.421124	1171.172703	-447.173112	420.111674	1139.237375	-73.105847	484.173064	1078.898561	-76.635927	511.635693	998.456340	-77.812410	512.996230	1098.431632	-92.008255	576.839485	865.929326	-96.516762	564.535643	849.303192	-210.811025	497.059731	765.833851	-79.679030	464.407629	681.709775	-95.638181	394.832846	632.331863	-107.114800	492.707510	665.860243	-116.555025	312.424629	505.512063	-119.106171	340.538472	508.231441	-202.708438	239.708465	496.097886	-160.614109	519.396350	390.914531	-140.891498	447.197398	387.917215	-87.250348	407.706666	1085.322231	-452.229823	445.053840	1007.297641	-445.317637	474.526195	1013.604728	-425.493910	441.208998	918.786184	-454.476917	427.636170	752.617596	-447.285428	429.305479	716.779640	-336.014810	350.297254	646.330851	-472.082095	308.857602	572.403365	-452.455351	234.956306	522.807341	-456.738023	328.609248	557.458088	-421.388614	131.352357	408.272148	-456.913873	NaN	NaN	NaN	68.086071	455.620828	-419.477892	200.806919	178.859038	-393.481856	142.359451	222.620736	-462.088566	-175.267468	935.096259	-276.661149	-3.015861	87.132408	-484.414392	-14.907290	80.647238	-83.790545	
1005	5.0250	850.460163	1251.486709	-67.193977	834.989349	1293.957872	-397.750734	881.899397	1362.375112	-229.554784	795.665284	1227.323044	-246.652469	569.008781	1154.706719	92.297575	697.896755	948.643566	-39.422001	594.320683	1172.030989	-532.520469	700.367837	938.236542	-460.353733	283.925378	1324.690637	-307.807826	455.021776	1250.245890	-423.555898	390.227236	1320.602491	-115.800533	470.369951	1200.744263	-372.628490	426.366796	1258.339279	-146.721457	313.658870	1368.221539	-265.588027	334.162662	1352.154831	-337.690177	336.659050	1280.358195	-98.357936	392.063932	1173.973861	-446.634511	418.835408	1135.568066	-72.520926	482.137589	1074.741397	-76.834441	508.870106	993.991894	-78.933146	511.309809	1094.077231	-92.008788	573.125832	861.528665	-98.409878	560.355055	845.056060	-212.740072	494.376117	760.101127	-80.931653	463.024085	675.424934	-96.456975	394.304642	624.791113	-107.539937	491.676702	659.903417	-117.341140	314.528298	495.889836	-118.900515	341.829445	498.884493	-202.581668	241.840300	485.381159	-160.031227	522.740870	382.530891	-141.385091	450.592611	379.009706	-87.400344	409.686507	1087.996624	-451.262471	448.087762	1010.429704	-445.142819	477.933976	1017.137175	-426.150832	445.361011	921.928428	-454.016701	432.981574	755.464633	-446.847048	436.294123	719.262925	-335.452465	355.640330	649.905789	-471.467885	312.838776	576.696715	-451.804166	238.055581	528.525505	-456.092876	332.240539	561.682945	-420.655970	131.754493	416.578538	-456.219186	NaN	NaN	NaN	69.602987	465.236050	-418.714730	196.404610	185.610000	-393.479273	138.974218	230.840092	-461.887366	-175.172862	935.208082	-276.413398	-2.991870	87.207781	-484.394518	-14.886965	80.665373	-83.760776	
1006	5.0300	850.135218	1251.221802	-67.096799	834.127297	1295.147142	-397.946668	881.276985	1362.844633	-228.881662	795.078204	1227.816855	-246.526222	568.035774	1154.638154	91.821635	697.715124	948.807042	-39.482265	594.390809	1172.204526	-532.932303	700.578589	938.576694	-460.074430	283.145452	1324.686041	-305.315983	453.738949	1252.133931	-422.548426	390.562948	1318.591464	-113.699913	469.663933	1202.233516	-372.155390	426.541095	1256.808074	-145.528994	312.872852	1367.894762	-262.602784	332.937592	1352.852022	-334.720882	336.402236	1277.849309	-96.758404	392.513783	1176.499193	-445.853456	417.592362	1132.041695	-71.983023	480.314447	1070.547412	-77.175249	506.179779	989.600879	-80.104881	509.673484	1089.737538	-92.106778	569.352106	856.739695	-100.374574	553.456317	839.998266	-214.552204	491.666534	754.361696	-82.136892	461.887367	669.158814	-97.373656	393.675440	617.228859	-108.025088	490.590588	653.857616	-118.168662	316.409471	486.264999	-118.700925	343.485106	489.256427	-202.411636	243.811571	474.767674	-159.319813	525.599031	373.697166	-141.777791	453.592931	369.817219	-87.625444	411.237874	1090.502351	-450.337174	450.531576	1013.290667	-445.256583	480.786683	1020.319854	-427.111884	448.436869	924.805496	-454.142890	437.595678	758.228944	-446.125169	442.786412	721.686706	-334.706850	360.606760	653.516039	-470.985253	316.588393	581.106153	-451.300116	240.750699	534.283788	-455.276427	335.826095	566.148951	-420.314925	131.822964	425.279569	-455.505897	NaN	NaN	NaN	70.501765	474.889794	-418.126713	192.746507	193.157709	-393.325369	136.127909	239.426629	-461.684691	-175.168866	935.205374	-276.449385	-2.979447	87.270601	-484.364746	-14.893846	80.728362	-83.744847	
1007	5.0350	849.740753	1251.015871	-66.920105	833.386338	1296.297820	-398.162750	880.502899	1363.344003	-228.162264	794.591675	1228.181197	-246.347155	566.974010	1154.546015	91.305881	697.553479	948.959868	-39.618919	594.587144	1172.380000	-533.506502	700.764400	938.801964	-459.833998	282.230147	1324.384798	-302.691097	452.773875	1254.042109	-421.801636	390.954230	1316.445451	-111.699431	469.459357	1203.730962	-372.031742	426.805709	1255.160479	-144.487642	312.111694	1367.453592	-259.639584	331.618385	1353.174683	-331.691012	336.379146	1275.175033	-95.218627	392.706798	1178.806927	-445.244630	416.447610	1128.516043	-71.413861	478.464757	1066.262565	-77.468005	503.405513	985.066755	-81.259592	508.046204	1085.174910	-92.319155	565.439758	851.758902	-102.421966	548.465640	835.511581	-216.418107	488.874656	748.285718	-83.360627	460.379672	662.634538	-98.288673	393.077939	609.554518	-108.557493	489.346771	647.749162	-119.097153	318.332680	476.456814	-118.600255	345.011784	479.481123	-202.405161	245.248627	464.855803	-158.398940	528.282912	364.729493	-142.123063	456.215980	360.402703	-87.907780	412.430042	1092.860549	-449.587007	452.312661	1015.840414	-445.462396	483.046633	1023.091387	-428.149771	450.467502	927.392062	-454.228164	441.698586	761.132794	-445.092255	448.969270	724.017022	-333.901844	365.303428	657.125269	-470.612144	319.705531	585.795291	-450.562995	242.949470	540.525356	-454.452090	338.631280	570.479359	-419.617445	131.528451	434.347125	-454.869335	NaN	NaN	NaN	70.893573	484.660325	-417.442642	189.683976	201.407956	-393.360088	133.635567	248.692165	-461.628826	-175.108265	935.266563	-276.272781	-2.952190	87.299557	-484.344419	-14.862710	80.739687	-83.733303	
